<svg xmlns="http://www.w3.org/2000/svg" version="1.1" xmlns:xlink="http://www.w3.org/1999/xlink" xmlns:svgjs="http://svgjs.dev/svgjs" width="2000" height="550" viewBox="0 0 2000 550"><g transform="matrix(1,0,0,1,-1.2121212121212466,-0.4637609295610332)"><svg viewBox="0 0 396 109" data-background-color="#d89340" preserveAspectRatio="xMidYMid meet" height="550" width="2000" xmlns="http://www.w3.org/2000/svg" xmlns:xlink="http://www.w3.org/1999/xlink"><g id="tight-bounds" transform="matrix(1,0,0,1,0.2400000000000091,0.09190898422210125)"><svg viewBox="0 0 395.52 108.8161820315558" height="108.8161820315558" width="395.52"><g><svg viewBox="0 0 608.4495575695296 167.39774932621745" height="108.8161820315558" width="395.52"><g transform="matrix(1,0,0,1,212.92955756952966,51.72833430286857)"><svg viewBox="0 0 395.52 63.941080720480315" height="63.941080720480315" width="395.52"><g id="textblocktransform"><svg viewBox="0 0 395.52 63.941080720480315" height="63.941080720480315" width="395.52" id="textblock"><g><svg viewBox="0 0 395.52 63.941080720480315" height="63.941080720480315" width="395.52"><g transform="matrix(1,0,0,1,0,0)"><svg width="395.52" viewBox="0.75 -35.75 224.83 36.35" height="63.941080720480315" data-palette-color="#524d4b"><path d="M11.2 0.6L11.2 0.6Q6.5 0.6 3.75-1.93 1-4.45 0.75-9.45L0.75-9.45 5.1-10.7Q5-6.9 6.85-5.08 8.7-3.25 11.2-3.25L11.2-3.25Q12.55-3.25 13.9-3.85 15.25-4.45 16.13-6.05 17-7.65 17-10.65L17-10.65 17-33.4 21.7-33.4 21.7-10.6Q21.7-5.15 18.9-2.27 16.1 0.6 11.2 0.6ZM36.85 0.6L36.85 0.6Q33.95 0.6 32.2-0.63 30.45-1.85 29.67-4.03 28.9-6.2 28.9-9L28.9-9 28.9-24.85 33.1-24.85 33.1-10Q33.1-7.25 33.75-5.75 34.4-4.25 35.57-3.68 36.75-3.1 38.3-3.1L38.3-3.1Q41.25-3.1 42.92-5.18 44.6-7.25 44.6-11.2L44.6-11.2 44.6-24.85 48.8-24.85 48.8 0 45.65 0 44.6-3.6Q43.55-1.8 41.75-0.6 39.95 0.6 36.85 0.6ZM63.5 0L61.65 0Q59.3 0 58.02-0.48 56.75-0.95 56.27-2.3 55.8-3.65 55.8-6.2L55.8-6.2 55.8-33.35 60-33.35 60-6.9Q60-5 60.4-4.35 60.8-3.7 62.55-3.7L62.55-3.7 63.5-3.7 63.5 0ZM71.09-29.5L71.09-29.5Q69.84-29.5 68.92-30.43 67.99-31.35 67.99-32.65L67.99-32.65Q67.99-33.95 68.92-34.85 69.84-35.75 71.09-35.75L71.09-35.75Q72.39-35.75 73.32-34.85 74.24-33.95 74.24-32.65L74.24-32.65Q74.24-31.35 73.32-30.43 72.39-29.5 71.09-29.5ZM73.19 0L68.99 0 68.99-21.45 65.54-21.45 65.54-24.8 73.19-24.8 73.19 0ZM82.49-22.35L79.89-22.35 79.19-33.4 83.19-33.4 82.49-22.35ZM97.14 0.6L97.14 0.6Q94.99 0.6 92.91-0.08 90.84-0.75 89.21-2.13 87.59-3.5 86.74-5.6L86.74-5.6 90.79-7.1Q91.34-4.9 93.21-3.93 95.09-2.95 97.14-2.95L97.14-2.95Q98.64-2.95 99.96-3.4 101.29-3.85 102.14-4.7 102.99-5.55 102.99-6.65L102.99-6.65Q102.99-8.7 101.36-9.55 99.74-10.4 97.49-10.85L97.49-10.85 94.04-11.55Q92.24-11.95 90.69-12.68 89.14-13.4 88.19-14.75 87.24-16.1 87.24-18.35L87.24-18.35Q87.24-20.6 88.64-22.13 90.04-23.65 92.21-24.45 94.39-25.25 96.79-25.25L96.79-25.25Q99.74-25.25 102.36-24.03 104.99-22.8 106.09-20.2L106.09-20.2 102.14-18.75Q101.49-20.25 99.86-20.98 98.24-21.7 96.49-21.7L96.49-21.7Q94.59-21.7 93.04-20.85 91.49-20 91.49-18.4L91.49-18.4Q91.49-16.8 92.81-16.07 94.14-15.35 96.09-14.95L96.09-14.95 99.34-14.3Q101.34-13.9 103.14-13.15 104.94-12.4 106.09-10.93 107.24-9.45 107.24-6.8L107.24-6.8Q107.24-4.45 105.79-2.8 104.34-1.15 102.04-0.28 99.74 0.6 97.14 0.6ZM135.28 0.6L135.28 0.6Q132.48 0.6 130.03-0.93 127.58-2.45 126.11-5.33 124.63-8.2 124.63-12.3L124.63-12.3Q124.63-16.4 126.11-19.28 127.58-22.15 130.03-23.68 132.48-25.2 135.28-25.2L135.28-25.2Q138.23-25.2 140.23-24.03 142.23-22.85 143.33-20.9L143.33-20.9 143.33-33.4 147.53-33.4 147.53-9.35Q147.53-8.1 147.63-5.68 147.73-3.25 148.38 0L148.38 0 144.43 0 143.33-3.75Q142.23-1.75 140.23-0.58 138.23 0.6 135.28 0.6ZM136.38-3L136.38-3Q139.58-3 141.51-5.45 143.43-7.9 143.43-12.3L143.43-12.3Q143.43-16.75 141.51-19.18 139.58-21.6 136.38-21.6L136.38-21.6Q133.18-21.6 131.26-19.18 129.33-16.75 129.33-12.3L129.33-12.3Q129.33-7.9 131.26-5.45 133.18-3 136.38-3ZM164.73 0.6L164.73 0.6Q162.58 0.6 160.48-0.15 158.38-0.9 156.66-2.48 154.93-4.05 153.88-6.5 152.83-8.95 152.83-12.3L152.83-12.3Q152.83-15.65 153.88-18.1 154.93-20.55 156.66-22.13 158.38-23.7 160.48-24.45 162.58-25.2 164.73-25.2L164.73-25.2Q166.88-25.2 169-24.45 171.13-23.7 172.86-22.13 174.58-20.55 175.61-18.1 176.63-15.65 176.63-12.3L176.63-12.3Q176.63-8.95 175.61-6.5 174.58-4.05 172.86-2.48 171.13-0.9 169-0.15 166.88 0.6 164.73 0.6ZM164.73-3.1L164.73-3.1Q166.53-3.1 168.23-4.08 169.93-5.05 171.03-7.08 172.13-9.1 172.13-12.3L172.13-12.3Q172.13-15.5 171.03-17.53 169.93-19.55 168.23-20.53 166.53-21.5 164.73-21.5L164.73-21.5Q162.98-21.5 161.25-20.53 159.53-19.55 158.43-17.53 157.33-15.5 157.33-12.3L157.33-12.3Q157.33-9.1 158.43-7.08 159.53-5.05 161.25-4.08 162.98-3.1 164.73-3.1ZM191.98 0.6L191.98 0.6Q188.43 0.6 185.83-1.07 183.23-2.75 181.83-5.65 180.43-8.55 180.43-12.3L180.43-12.3Q180.43-16 181.9-18.93 183.38-21.85 186.08-23.53 188.78-25.2 192.43-25.2L192.43-25.2Q195.78-25.2 198.18-23.55 200.58-21.9 201.78-19.6L201.78-19.6 197.93-18.2Q197.13-19.7 195.58-20.6 194.03-21.5 192.13-21.5L192.13-21.5Q190.28-21.5 188.63-20.53 186.98-19.55 185.98-17.53 184.98-15.5 184.98-12.35L184.98-12.35Q184.98-9.25 186-7.18 187.03-5.1 188.65-4.1 190.28-3.1 192.13-3.1L192.13-3.1Q194.18-3.1 195.7-4.03 197.23-4.95 198.03-6.35L198.03-6.35 201.88-4.95Q200.48-2.55 197.88-0.98 195.28 0.6 191.98 0.6ZM215.47 0.6L215.47 0.6Q213.33 0.6 211.25-0.08 209.18-0.75 207.55-2.13 205.93-3.5 205.08-5.6L205.08-5.6 209.13-7.1Q209.68-4.9 211.55-3.93 213.43-2.95 215.47-2.95L215.47-2.95Q216.97-2.95 218.3-3.4 219.63-3.85 220.47-4.7 221.33-5.55 221.33-6.65L221.33-6.65Q221.33-8.7 219.7-9.55 218.08-10.4 215.83-10.85L215.83-10.85 212.38-11.55Q210.58-11.95 209.03-12.68 207.47-13.4 206.53-14.75 205.58-16.1 205.58-18.35L205.58-18.35Q205.58-20.6 206.97-22.13 208.38-23.65 210.55-24.45 212.72-25.25 215.13-25.25L215.13-25.25Q218.08-25.25 220.7-24.03 223.33-22.8 224.43-20.2L224.43-20.2 220.47-18.75Q219.83-20.25 218.2-20.98 216.58-21.7 214.83-21.7L214.83-21.7Q212.93-21.7 211.38-20.85 209.83-20 209.83-18.4L209.83-18.4Q209.83-16.8 211.15-16.07 212.47-15.35 214.43-14.95L214.43-14.95 217.68-14.3Q219.68-13.9 221.47-13.15 223.28-12.4 224.43-10.93 225.58-9.45 225.58-6.8L225.58-6.8Q225.58-4.45 224.13-2.8 222.68-1.15 220.38-0.28 218.08 0.6 215.47 0.6Z" opacity="1" transform="matrix(1,0,0,1,0,0)" fill="#ffffff" class="wordmark-text-0" data-fill-palette-color="primary" id="text-0"></path></svg></g></svg></g></svg></g></svg></g><g><svg viewBox="0 0 197.83460299736154 167.39774932621745" height="167.39774932621745" width="197.83460299736154"><g><svg xmlns="http://www.w3.org/2000/svg" xml:space="preserve" viewBox="0 13.422 100 84.615" x="0" y="0" height="167.39774932621745" width="197.83460299736154" class="icon-icon-0" data-fill-palette-color="accent" id="icon-0"><path d="M0 13.422v84.615h100V13.422z m92.308 76.924H7.692V28.807h84.615v61.539z" fill="#ffffff" data-fill-palette-color="accent"></path><path d="M42.002 66.065H68.49v7.775H42.002zM15.521 66.064l26.467-10.515v-0.022l0.014 0.006v-8.352l-0.014 0.006v-0.022L15.521 36.65l-0.006 8.364 15.972 6.343-15.972 6.344z" fill="#ffffff" data-fill-palette-color="accent"></path></svg></g></svg></g></svg></g><defs></defs></svg><rect width="395.52" height="108.8161820315558" fill="none" stroke="none" visibility="hidden"></rect></g></svg></g></svg>